<svg x="0" y="0" width="936" height="259" version="1.1" xmlns="http://www.w3.org/2000/svg" xmlns:xlink="http://www.w3.org/1999/xlink"><g fill="none" stroke="none" stroke-width="1" stroke-linecap="butt" stroke-linejoin="miter" stroke-miterlimit="10" stroke-dasharray="" stroke-dashoffset="0" font-family="sans-serif" font-weight="normal" font-size="12" text-anchor="start" mix-blend-mode="normal"/><g id="1 &quot;in. Tick Group" fill="none" stroke="none" stroke-width="none" stroke-linecap="butt" stroke-linejoin="miter" stroke-miterlimit="10" stroke-dasharray="" stroke-dashoffset="0" font-family="none" font-weight="none" font-size="none" text-anchor="none" mix-blend-mode="normal"><line x1="0" y1="0" x2="0" y2="36" id="1 &quot;in. Tick no. 0" stroke="#000000" stroke-width="1" font-family="sans-serif" font-weight="normal" font-size="12" text-anchor="start"/><text x="4" y="37" id="1 &quot;in. label no. 0" fill="#000000" stroke-width="1" font-family="monospace" font-weight="bold" font-size="18" text-anchor="start">0</text><line x1="72" y1="0" x2="72" y2="36" id="1 &quot;in. Tick no. 1" stroke="#000000" stroke-width="1" font-family="sans-serif" font-weight="normal" font-size="12" text-anchor="start"/><text x="76" y="37" id="1 &quot;in. label no. 1" fill="#000000" stroke-width="1" font-family="monospace" font-weight="bold" font-size="18" text-anchor="start">1</text><line x1="144" y1="0" x2="144" y2="36" id="1 &quot;in. Tick no. 2" stroke="#000000" stroke-width="1" font-family="sans-serif" font-weight="normal" font-size="12" text-anchor="start"/><text x="148" y="37" id="1 &quot;in. label no. 2" fill="#000000" stroke-width="1" font-family="monospace" font-weight="bold" font-size="18" text-anchor="start">2</text><line x1="216" y1="0" x2="216" y2="36" id="1 &quot;in. Tick no. 3" stroke="#000000" stroke-width="1" font-family="sans-serif" font-weight="normal" font-size="12" text-anchor="start"/><text x="212" y="37" id="1 &quot;in. label no. 3" fill="#000000" stroke-width="1" font-family="monospace" font-weight="bold" font-size="18" text-anchor="end">3</text></g><g id="1/2 &quot;in. Tick Group" fill="none" stroke="#000000" stroke-width="1" stroke-linecap="butt" stroke-linejoin="miter" stroke-miterlimit="10" stroke-dasharray="" stroke-dashoffset="0" font-family="sans-serif" font-weight="normal" font-size="12" text-anchor="start" mix-blend-mode="normal"><line x1="36" y1="0" x2="36" y2="18" id="1/2 &quot;in. Tick no. 1"/><line x1="108" y1="0" x2="108" y2="18" id="1/2 &quot;in. Tick no. 3"/><line x1="180" y1="0" x2="180" y2="18" id="1/2 &quot;in. Tick no. 5"/></g><g id="1/4 &quot;in. Tick Group" fill="none" stroke="#000000" stroke-width="1" stroke-linecap="butt" stroke-linejoin="miter" stroke-miterlimit="10" stroke-dasharray="" stroke-dashoffset="0" font-family="sans-serif" font-weight="normal" font-size="12" text-anchor="start" mix-blend-mode="normal"><line x1="18" y1="0" x2="18" y2="9" id="1/4 &quot;in. Tick no. 1"/><line x1="54" y1="0" x2="54" y2="9" id="1/4 &quot;in. Tick no. 3"/><line x1="90" y1="0" x2="90" y2="9" id="1/4 &quot;in. Tick no. 5"/><line x1="126" y1="0" x2="126" y2="9" id="1/4 &quot;in. Tick no. 7"/><line x1="162" y1="0" x2="162" y2="9" id="1/4 &quot;in. Tick no. 9"/><line x1="198" y1="0" x2="198" y2="9" id="1/4 &quot;in. Tick no. 11"/></g><g id="1/8 &quot;in. Tick Group" fill="none" stroke="#000000" stroke-width="1" stroke-linecap="butt" stroke-linejoin="miter" stroke-miterlimit="10" stroke-dasharray="" stroke-dashoffset="0" font-family="sans-serif" font-weight="normal" font-size="12" text-anchor="start" mix-blend-mode="normal"><line x1="9" y1="0" x2="9" y2="4.5" id="1/8 &quot;in. Tick no. 1"/><line x1="27" y1="0" x2="27" y2="4.5" id="1/8 &quot;in. Tick no. 3"/><line x1="45" y1="0" x2="45" y2="4.5" id="1/8 &quot;in. Tick no. 5"/><line x1="63" y1="0" x2="63" y2="4.5" id="1/8 &quot;in. Tick no. 7"/><line x1="81" y1="0" x2="81" y2="4.5" id="1/8 &quot;in. Tick no. 9"/><line x1="99" y1="0" x2="99" y2="4.5" id="1/8 &quot;in. Tick no. 11"/><line x1="117" y1="0" x2="117" y2="4.5" id="1/8 &quot;in. Tick no. 13"/><line x1="135" y1="0" x2="135" y2="4.5" id="1/8 &quot;in. Tick no. 15"/><line x1="153" y1="0" x2="153" y2="4.5" id="1/8 &quot;in. Tick no. 17"/><line x1="171" y1="0" x2="171" y2="4.5" id="1/8 &quot;in. Tick no. 19"/><line x1="189" y1="0" x2="189" y2="4.5" id="1/8 &quot;in. Tick no. 21"/><line x1="207" y1="0" x2="207" y2="4.5" id="1/8 &quot;in. Tick no. 23"/></g></svg>